<svg width="14" height="14" viewBox="0 0 14 14" fill="none" xmlns="http://www.w3.org/2000/svg">
<path d="M2.9165 7.00004V2.33337M11.0832 11.6667V9.91671M2.9165 11.6667V9.33337M11.0832 7.58337V2.33337M6.99984 4.08337V2.33337M6.99984 11.6667V6.41671" stroke="#2E2E2E" stroke-linecap="round"/>
<path d="M2.91667 9.33333C3.561 9.33333 4.08333 8.811 4.08333 8.16667C4.08333 7.52233 3.561 7 2.91667 7C2.27233 7 1.75 7.52233 1.75 8.16667C1.75 8.811 2.27233 9.33333 2.91667 9.33333Z" stroke="#2E2E2E" stroke-linecap="round"/>
<path d="M7.00016 6.41671C7.64449 6.41671 8.16683 5.89437 8.16683 5.25004C8.16683 4.60571 7.64449 4.08337 7.00016 4.08337C6.35583 4.08337 5.8335 4.60571 5.8335 5.25004C5.8335 5.89437 6.35583 6.41671 7.00016 6.41671Z" stroke="#2E2E2E" stroke-linecap="round"/>
<path d="M11.0832 9.91671C11.7275 9.91671 12.2498 9.39437 12.2498 8.75004C12.2498 8.10571 11.7275 7.58337 11.0832 7.58337C10.4388 7.58337 9.9165 8.10571 9.9165 8.75004C9.9165 9.39437 10.4388 9.91671 11.0832 9.91671Z" stroke="#2E2E2E" stroke-linecap="round"/>
</svg>
