<svg width="14" height="14" viewBox="0 0 14 14" fill="none" xmlns="http://www.w3.org/2000/svg">
<path d="M12.8953 3.0701C12.8953 2.93388 12.7848 2.82356 12.6488 2.82356L12.6479 2.8237V2.823H6.22499V2.82496C6.16006 2.82529 6.09787 2.85124 6.05197 2.89717C6.00606 2.9431 5.98015 3.0053 5.97985 3.07024L5.97971 3.95812C5.97957 3.96232 5.97845 3.9661 5.97845 3.9703C5.97845 4.10638 6.08877 4.2167 6.22499 4.21684H12.6479L12.6488 4.21698C12.785 4.21698 12.8953 4.10652 12.8953 3.97044V3.0701ZM12.8953 5.15624C12.8953 5.02002 12.7848 4.9097 12.6488 4.9097L12.6479 4.90984V4.90914H6.22499V4.9111C6.16006 4.91143 6.09787 4.93738 6.05197 4.98331C6.00606 5.02924 5.98015 5.09144 5.97985 5.15638L5.97971 6.0444C5.97957 6.0486 5.97845 6.05238 5.97845 6.05658C5.97845 6.19266 6.08877 6.30298 6.22499 6.30312H12.6479H12.6488C12.785 6.30312 12.8953 6.19266 12.8953 6.05658V5.15624ZM4.58461 3.06954C4.58463 3.03716 4.57827 3.00509 4.56588 2.97517C4.5535 2.94525 4.53534 2.91806 4.51244 2.89517C4.48955 2.87227 4.46236 2.85411 4.43244 2.84173C4.40252 2.82934 4.37045 2.82298 4.33807 2.823C4.33205 2.823 4.32631 2.8244 4.32043 2.82482H1.36867C1.36279 2.8244 1.35705 2.823 1.35103 2.823C1.21481 2.823 1.10449 2.93346 1.10449 3.06954V6.05644C1.10449 6.19252 1.21481 6.30298 1.35103 6.30298H4.33807C4.47429 6.30298 4.58461 6.19252 4.58461 6.05644V3.06954ZM12.8953 7.9442C12.8953 7.80798 12.7848 7.69766 12.6488 7.69766L12.6479 7.6978V7.6971H6.22499V7.69906C6.16006 7.69939 6.09787 7.72534 6.05197 7.77127C6.00606 7.8172 5.98015 7.8794 5.97985 7.94434L5.97971 8.83236C5.97957 8.83656 5.97845 8.84034 5.97845 8.84454C5.97845 8.98062 6.08877 9.09108 6.22499 9.09108H12.6479H12.6488C12.785 9.09108 12.8953 8.98062 12.8953 8.84454V7.9442ZM12.8953 10.0303C12.8953 9.89412 12.7848 9.7838 12.6488 9.7838L12.6479 9.78394V9.78324H6.22499V9.7852C6.16006 9.78553 6.09787 9.81148 6.05197 9.85741C6.00606 9.90335 5.98015 9.96554 5.97985 10.0305L5.97971 10.9184C5.97957 10.9226 5.97845 10.9263 5.97845 10.9305C5.97845 11.0666 6.08877 11.1771 6.22499 11.1771H12.6479H12.6488C12.785 11.1771 12.8953 11.0666 12.8953 10.9305V10.0303ZM4.58461 7.94364C4.58461 7.80742 4.47429 7.69696 4.33807 7.69696C4.33205 7.69696 4.32631 7.69836 4.32043 7.69878H1.36867C1.36279 7.69836 1.35705 7.69696 1.35103 7.69696C1.21481 7.69696 1.10449 7.80742 1.10449 7.94364V10.9305C1.10449 11.0666 1.21495 11.1771 1.35103 11.1771H4.33807C4.47429 11.1771 4.58461 11.0666 4.58461 10.9305V7.94364Z" fill="#2E2E2E"/>
</svg>
