<svg width="31" height="30" viewBox="0 0 31 30" fill="none" xmlns="http://www.w3.org/2000/svg">
<path d="M20.1367 17.5H19.1492L18.7992 17.1625C20.0667 15.6926 20.7632 13.8159 20.7617 11.875C20.7617 10.268 20.2852 8.69715 19.3924 7.361C18.4996 6.02485 17.2307 4.98344 15.746 4.36848C14.2614 3.75352 12.6277 3.59262 11.0516 3.90612C9.47552 4.21963 8.02778 4.99346 6.89148 6.12976C5.75518 7.26606 4.98135 8.7138 4.66784 10.2899C4.35434 11.866 4.51524 13.4997 5.1302 14.9843C5.74516 16.469 6.78657 17.7379 8.12272 18.6307C9.45887 19.5235 11.0298 20 12.6367 20C14.6492 20 16.4992 19.2625 17.9242 18.0375L18.2617 18.3875V19.375L24.5117 25.6125L26.3742 23.75L20.1367 17.5ZM12.6367 17.5C9.52422 17.5 7.01172 14.9875 7.01172 11.875C7.01172 8.7625 9.52422 6.25 12.6367 6.25C15.7492 6.25 18.2617 8.7625 18.2617 11.875C18.2617 14.9875 15.7492 17.5 12.6367 17.5Z" fill="#2E2E2E"/>
</svg>
